<?xml version="1.0" encoding="UTF-8"?>
<svg xmlns="http://www.w3.org/2000/svg" xmlns:xlink="http://www.w3.org/1999/xlink" width="225px" height="225px" viewBox="0 0 169 169" version="1.1">
<g id="surface1">
<path style=" stroke:none;fill-rule:nonzero;fill:rgb(99.215686%,99.215686%,99.215686%);fill-opacity:1;" d="M 0 0 C 55.769531 0 111.539062 0 169 0 C 169 55.769531 169 111.539062 169 169 C 113.230469 169 57.460938 169 0 169 C 0 113.230469 0 57.460938 0 0 Z M 0 0 "/>
<path style=" stroke:none;fill-rule:nonzero;fill:rgb(0.392157%,0.392157%,0.392157%);fill-opacity:1;" d="M 85.492188 115.019531 C 88.144531 117.152344 90.726562 119.335938 93.226562 121.648438 C 101.660156 129.417969 110.4375 131.136719 121.5625 130.925781 C 126.0625 130.734375 129.730469 129.828125 133.695312 127.691406 C 134.351562 127.347656 135 127 135.671875 126.644531 C 138.71875 124.914062 141.332031 123.140625 143.839844 120.691406 C 146.410156 118.394531 148.746094 117.894531 152.152344 117.753906 C 156.128906 118.128906 158.398438 120.003906 161.066406 122.945312 C 162.820312 126.664062 163.0625 129.816406 161.710938 133.726562 C 156.601562 143.324219 143.523438 148.878906 133.742188 152.003906 C 118.507812 156.527344 102.445312 153.949219 88.628906 146.46875 C 84.238281 143.75 80.480469 140.589844 76.753906 137.03125 C 68.972656 129.847656 59.273438 126.539062 48.757812 126.703125 C 39.277344 127.457031 31.25 131.703125 24.316406 138.054688 C 21.710938 140.328125 18.839844 139.914062 15.546875 139.859375 C 12.929688 139.660156 11.660156 139.292969 9.761719 137.453125 C 7.039062 133.53125 6.152344 130.15625 6.757812 125.433594 C 12.882812 114.878906 25.148438 108.867188 36.476562 105.53125 C 53.191406 101.558594 71.695312 104.585938 85.492188 115.019531 Z M 85.492188 115.019531 "/>
<path style=" stroke:none;fill-rule:nonzero;fill:rgb(0.392157%,0.392157%,0.392157%);fill-opacity:1;" d="M 48.695312 14.875 C 63.054688 14.347656 78.632812 19.277344 89.308594 29.03125 C 90.050781 29.742188 90.796875 30.453125 91.539062 31.171875 C 99.566406 38.855469 108.277344 42.359375 119.324219 42.34375 C 129.109375 42.070312 137.5625 37.464844 144.683594 30.945312 C 147.167969 28.777344 149.722656 29.09375 152.871094 29.132812 C 156.351562 29.433594 157.933594 30.921875 160.171875 33.46875 C 162.347656 36.5 162.773438 39.128906 162.242188 42.8125 C 158.730469 51.242188 150.023438 56.464844 141.960938 60.089844 C 125.757812 66.441406 109.230469 66.566406 93.332031 59.628906 C 86.988281 56.734375 81.703125 52.945312 76.636719 48.179688 C 68.046875 40.195312 58.644531 37.839844 47.269531 38.074219 C 37.566406 38.515625 29.667969 44.101562 22.53125 50.324219 C 19.371094 51.90625 16.246094 51.230469 13.003906 50.183594 C 9.628906 48.335938 7.972656 46.457031 6.757812 42.8125 C 6.320312 37.449219 7.308594 35.25 10.789062 31.0625 C 20.390625 20.480469 34.867188 15.84375 48.695312 14.875 Z M 48.695312 14.875 "/>
<path style=" stroke:none;fill-rule:nonzero;fill:rgb(0.392157%,0.392157%,0.392157%);fill-opacity:1;" d="M 49.996094 59.804688 C 50.785156 59.8125 51.574219 59.8125 52.390625 59.8125 C 61.476562 59.953125 70.039062 61.761719 78.113281 66.097656 C 78.675781 66.382812 79.242188 66.675781 79.820312 66.972656 C 83.933594 69.246094 87.375 72.019531 90.886719 75.113281 C 99.898438 83.023438 108.039062 87 120.199219 86.589844 C 129.695312 85.914062 136.414062 82.515625 143.511719 76.332031 C 145.957031 74.316406 147.578125 73.195312 150.785156 73.089844 C 154.78125 73.5 157.515625 74.785156 160.21875 77.789062 C 162.375 80.902344 162.609375 83.394531 162.242188 87.128906 C 159.289062 95.636719 150.160156 100.453125 142.523438 104.171875 C 141.09375 104.773438 139.65625 105.351562 138.207031 105.90625 C 137.433594 106.203125 136.65625 106.5 135.863281 106.804688 C 122.933594 110.992188 107.851562 110.574219 95.390625 105.15625 C 94.578125 104.8125 93.765625 104.46875 92.925781 104.113281 C 86.929688 101.347656 82 97.597656 77.214844 93.078125 C 68.515625 84.890625 59.050781 82.058594 47.328125 82.386719 C 38.15625 82.910156 30.988281 87.691406 24.414062 93.738281 C 21.902344 95.738281 19.046875 95.640625 15.988281 95.605469 C 12.636719 95.183594 10.5625 93.292969 8.402344 90.839844 C 6.527344 87.773438 6.304688 84.621094 6.757812 81.117188 C 11.632812 70.945312 24.554688 65.203125 34.550781 61.59375 C 39.671875 60.074219 44.675781 59.800781 49.996094 59.804688 Z M 49.996094 59.804688 "/>
</g>
</svg>
